#!OML:ASF G:\JayActor3\Patient Classification 1\Patient 1\Session 6\male.ASF
:FULLY-SPECIFIED
:DEGREES
1817
root -36.0765 16.8982 -14.8517 -337.942 -159.195 1.3996
lowerback 22.8709 -0.620454 7.31444
upperback 0.516846 0.892671 0.229914
thorax -12.1798 -0.116415 -4.20493
lowerneck 3.34801 13.1209 10.8399
upperneck 3.87485 17.7811 -4.72225
head 2.19493 8.96291 -2.9847
rclavicle 0 3.18055e-015
rhumerus -45.0339 3.70875 -86.3726
rradius 56.9887
rwrist 1.41202
rhand -20.8097 4.58201
rfingers 7.12502
rthumb 5.55804 -25.3251
lclavicle 0 3.18055e-015
lhumerus -56.2189 -32.3481 94.6753
lradius 61.801
lwrist 39.1466
lhand -28.6698 -1.52932
lfingers 7.12502
lthumb -2.03279 28.4407
rfemur -38.8574 1.97304 26.8044
rtibia 36.2154
rfoot -20.9295 -22.8412
rtoes -6.28969
lfemur -35.5141 12.875 -25.0205
ltibia 23.8749
lfoot -12.4346 -13.5567
ltoes -31.0866
1818
root -36.0726 16.8987 -14.8506 -337.939 -159.212 1.36132
lowerback 22.8534 -0.612593 7.26981
upperback 0.534872 0.886697 0.217753
thorax -12.1502 -0.115534 -4.19078
lowerneck 3.37315 13.1147 10.8331
upperneck 3.81577 17.7764 -4.73392
head 2.17072 8.95993 -2.99194
rclavicle -1.0138e-014 6.36111e-015
rhumerus -45.019 3.73314 -86.3905
rradius 57.0237
rwrist 1.40745
rhand -20.8032 4.61404
rfingers 7.12502
rthumb 5.56437 -25.2929
lclavicle -1.0138e-014 6.36111e-015
lhumerus -56.2127 -32.3489 94.6352
lradius 61.8502
lwrist 39.1626
lhand -28.6909 -1.52305
lfingers 7.12502
lthumb -2.05321 28.4468
rfemur -38.8726 1.96295 26.7785
rtibia 36.2444
rfoot -20.9349 -22.8007
rtoes -6.15447
lfemur -35.4966 12.8454 -25.0407
ltibia 23.8582
lfoot -12.3723 -13.4984
ltoes -31.2066
1819
root -36.0684 16.899 -14.8493 -337.941 -159.231 1.32604
lowerback 22.837 -0.604749 7.22591
upperback 0.553133 0.881103 0.207047
thorax -12.121 -0.114538 -4.17552
lowerneck 3.39135 13.1083 10.8313
upperneck 3.76623 17.7703 -4.74185
head 2.15097 8.95637 -2.99792
rclavicle 9.24349e-014 -2.5842e-014
rhumerus -45.0071 3.76059 -86.4074
rradius 57.0666
rwrist 1.4017
rhand -20.7952 4.64751
rfingers 7.12502
rthumb 5.57207 -25.2592
lclavicle 9.24349e-014 -2.5842e-014
lhumerus -56.2042 -32.3446 94.5889
lradius 61.8925
lwrist 39.1804
lhand -28.7 -1.52195
lfingers 7.12502
lthumb -2.06195 28.4478
rfemur -38.886 1.96575 26.7536
rtibia 36.275
rfoot -20.937 -22.8307
rtoes -6.20953
lfemur -35.4745 12.8128 -25.0552
ltibia 23.8409
lfoot -12.3115 -13.4294
ltoes -31.3168
1820
root -36.064 16.8992 -14.8478 -337.947 -159.251 1.29423
lowerback 22.8199 -0.594726 7.18433
upperback 0.570986 0.879154 0.198103
thorax -12.0913 -0.11196 -4.16076
lowerneck 3.40785 13.1055 10.8262
upperneck 3.7302 17.7682 -4.74086
head 2.13508 8.95486 -2.99962
rclavicle 2.32578e-014 3.10104e-014
rhumerus -45.0031 3.78952 -86.4195
rradius 57.1197
rwrist 1.3909
rhand -20.7814 4.68425
rfingers 7.12502
rthumb 5.58537 -25.2221
lclavicle 2.32578e-014 3.10104e-014
lhumerus -56.1923 -32.3429 94.5432
lradius 61.9221
lwrist 39.194
lhand -28.6871 -1.51743
lfingers 7.12502
lthumb -2.04951 28.4525
rfemur -38.8963 1.97474 26.7306
rtibia 36.3056
rfoot -20.944 -22.8502
rtoes -6.25906
lfemur -35.4518 12.7837 -25.0668
ltibia 23.8278
lfoot -12.2646 -13.3539
ltoes -31.4366
1821
root -36.0596 16.8991 -14.8462 -337.957 -159.273 1.2667
lowerback 22.8014 -0.5815 7.14884
upperback 0.589419 0.882727 0.188327
thorax -12.0594 -0.107162 -4.15218
lowerneck 3.4236 13.103 10.8291
upperneck 3.70391 17.7664 -4.73938
head 2.12343 8.95365 -3.00197
rclavicle 6.75868e-015 -2.46493e-014
rhumerus -45.0022 3.80491 -86.4261
rradius 57.1748
rwrist 1.38033
rhand -20.7634 4.72353
rfingers 7.12502
rthumb 5.60275 -25.1824
lclavicle 6.75868e-015 -2.46493e-014
lhumerus -56.1835 -32.3617 94.5014
lradius 61.9468
lwrist 39.2044
lhand -28.6559 -1.50781
lfingers 7.12502
lthumb -2.01934 28.4624
rfemur -38.9026 1.98614 26.7117
rtibia 36.3359
rfoot -20.9589 -22.8587
rtoes -6.29457
lfemur -35.4285 12.7532 -25.0719
ltibia 23.8223
lfoot -12.2346 -13.2702
ltoes -31.5636
1822
root -36.055 16.8988 -14.8445 -337.972 -159.296 1.24521
lowerback 22.779 -0.56726 7.12036
upperback 0.6088 0.889198 0.180146
thorax -12.0238 -0.101265 -4.14665
lowerneck 3.43952 13.1028 10.8282
upperneck 3.68669 17.7672 -4.73212
head 2.114 8.95382 -3.00137
rclavicle 5.725e-014 8.74653e-015
rhumerus -44.9986 3.81528 -86.4276
rradius 57.2274
rwrist 1.36393
rhand -20.7446 4.74432
rfingers 7.12502
rthumb 5.62095 -25.1611
lclavicle 5.725e-014 8.74653e-015
lhumerus -56.1725 -32.391 94.4614
lradius 61.9623
lwrist 39.2048
lhand -28.6007 -1.48416
lfingers 7.12502
lthumb -1.96603 28.4865
rfemur -38.9087 1.96986 26.7097
rtibia 36.3667
rfoot -20.9462 -22.8316
rtoes -6.33476
lfemur -35.4071 12.7251 -25.0706
ltibia 23.8243
lfoot -12.2154 -13.1833
ltoes -31.6884
1823
root -36.0506 16.8982 -14.8427 -337.989 -159.324 1.22104
lowerback 22.7527 -0.551576 7.09328
upperback 0.62876 0.897484 0.170793
thorax -11.9852 -0.0945151 -4.14375
lowerneck 3.45915 13.1006 10.8296
upperneck 3.67418 17.7657 -4.72676
head 2.10577 8.95302 -3.00198
rclavicle 7.0171e-014 -3.53837e-014
rhumerus -44.9931 3.81442 -86.4211
rradius 57.2736
rwrist 1.34879
rhand -20.7231 4.74825
rfingers 7.12502
rthumb 5.64169 -25.1567
lclavicle 7.0171e-014 -3.53837e-014
lhumerus -56.1579 -32.4287 94.4248
lradius 61.9642
lwrist 39.1911
lhand -28.5318 -1.45239
lfingers 7.12502
lthumb -1.89954 28.5189
rfemur -38.9126 1.93276 26.7114
rtibia 36.3993
rfoot -20.9106 -22.756
rtoes -6.32958
lfemur -35.384 12.6984 -25.0723
ltibia 23.8326
lfoot -12.208 -13.0988
ltoes -31.8067
1824
root -36.0464 16.8973 -14.8409 -338.009 -159.355 1.19225
lowerback 22.7212 -0.537065 7.06534
upperback 0.649649 0.903414 0.159989
thorax -11.9429 -0.0886687 -4.14113
lowerneck 3.47868 13.1017 10.8262
upperneck 3.67045 17.7682 -4.7165
head 2.09982 8.95424 -2.9997
rclavicle -3.77691e-015 3.57812e-015
rhumerus -44.9824 3.80938 -86.4091
rradius 57.3111
rwrist 1.33875
rhand -20.6935 4.75541
rfingers 7.12502
rthumb 5.67031 -25.1487
lclavicle -3.77691e-015 3.57812e-015
lhumerus -56.1421 -32.4783 94.385
lradius 61.9604
lwrist 39.1738
lhand -28.4663 -1.41448
lfingers 7.12502
lthumb -1.83629 28.5574
rfemur -38.9151 1.88407 26.7107
rtibia 36.434
rfoot -20.8718 -22.6436
rtoes -6.25582
lfemur -35.3587 12.6681 -25.0772
ltibia 23.8445
lfoot -12.1989 -13.0141
ltoes -31.909
1825
root -36.0425 16.8964 -14.839 -338.031 -159.387 1.16328
lowerback 22.6843 -0.521578 7.04383
upperback 0.670111 0.911859 0.147897
thorax -11.8976 -0.0819309 -4.14437
lowerneck 3.49896 13.0989 10.8209
upperneck 3.67302 17.7653 -4.70266
head 2.0948 8.95281 -2.99611
rclavicle -1.53064e-014 3.18055e-015
rhumerus -44.9695 3.7925 -86.3904
rradius 57.3432
rwrist 1.32841
rhand -20.6624 4.75144
rfingers 7.12502
rthumb 5.70031 -25.1519
lclavicle -1.53064e-014 3.18055e-015
lhumerus -56.1176 -32.5262 94.3453
lradius 61.9373
lwrist 39.1418
lhand -28.4315 -1.3737
lfingers 7.12502
lthumb -1.8027 28.5984
rfemur -38.9153 1.84285 26.7056
rtibia 36.4708
rfoot -20.8426 -22.523
rtoes -6.14085
lfemur -35.3292 12.6324 -25.0795
ltibia 23.8571
lfoot -12.1907 -12.9259
ltoes -31.9992
1826
root -36.0389 16.8954 -14.8371 -338.057 -159.421 1.13309
lowerback 22.6433 -0.507986 7.02518
upperback 0.690271 0.918375 0.136205
thorax -11.8508 -0.0761499 -4.14809
lowerneck 3.51567 13.0937 10.8112
upperneck 3.68877 17.7582 -4.68266
head 2.09337 8.94942 -2.9893
rclavicle -5.66536e-014 1.98785e-015
rhumerus -44.9597 3.78607 -86.37
rradius 57.3795
rwrist 1.31343
rhand -20.6304 4.74381
rfingers 7.12502
rthumb 5.73117 -25.1587
lclavicle -5.66536e-014 1.98785e-015
lhumerus -56.087 -32.5644 94.3028
lradius 61.9009
lwrist 39.1085
lhand -28.4267 -1.3413
lfingers 7.12502
lthumb -1.79806 28.6309
rfemur -38.9109 1.82362 26.6904
rtibia 36.5088
rfoot -20.8165 -22.4201
rtoes -5.99993
lfemur -35.2939 12.5963 -25.0835
ltibia 23.869
lfoot -12.1978 -12.8334
ltoes -32.1003
1827
root -36.0356 16.8941 -14.8351 -338.087 -159.456 1.10089
lowerback 22.5978 -0.497237 7.00625
upperback 0.71073 0.920859 0.125412
thorax -11.8015 -0.0720726 -4.14924
lowerneck 3.526 13.0843 10.7998
upperneck 3.71881 17.7445 -4.6586
head 2.09668 8.94281 -2.98026
rclavicle 2.82274e-014 -1.70955e-014
rhumerus -44.9472 3.7883 -86.3498
rradius 57.4119
rwrist 1.30125
rhand -20.6002 4.72124
rfingers 7.12502
rthumb 5.76038 -25.1805
lclavicle 2.82274e-014 -1.70955e-014
lhumerus -56.0518 -32.5903 94.2576
lradius 61.8548
lwrist 39.0816
lhand -28.4452 -1.31865
lfingers 7.12502
lthumb -1.81585 28.6534
rfemur -38.8956 1.93566 26.6284
rtibia 36.5474
rfoot -20.8504 -22.4851
rtoes -5.93533
lfemur -35.2523 12.5596 -25.0888
ltibia 23.881
lfoot -12.2007 -12.7417
ltoes -32.1685
